<svg xmlns="http://www.w3.org/2000/svg" width="385" height="99" viewBox="0 0 3850 990"><g fill="#4ec490"><path d="M452 873c-18-32-43-76-57-98-13-22-41-69-62-105s-42-72-48-82c-5-9-28-47-49-85-21-37-75-131-120-208C3 99 0 94 0 71c0-20 5-21 94-21h93l149 260c82 143 151 260 154 260s73-117 155-260L795 51l98-1c115 0 117 3 60 95-38 63-107 182-203 350-31 55-66 117-78 138-12 20-31 53-42 72s-28 50-39 68c-10 17-34 59-52 91-19 33-39 61-44 63-6 2-25-23-43-54zM2800 710c-9-6-11-26-5-85l7-77-30 22c-41 30-73 23-97-22l-19-36-31 46c-39 60-68 64-75 9-3-21-8-39-12-40s-21 19-37 46c-38 58-67 64-77 13-3-19-3-41 2-48 4-7-8 1-27 18-39 36-90 64-116 64-28 0-60-26-67-55-16-62 37-155 88-155 56 0 51 81-8 127-32 26-33 33-2 33 25 0 93-50 138-102 30-35 48-30 48 14v30l29-31c16-17 36-31 45-31 18 0 36 30 36 62 0 21 2 20 20-9 21-34 48-53 67-46 7 3 22 25 33 49 16 38 22 44 37 35 25-13 49-42 57-68 7-23 40-31 51-13 4 6 17 1 34-11 17-13 39-19 57-17 27 3 29 6 29 46v44l38-42c20-24 40-54 42-66 3-13 7-35 10-49s13-29 21-32c31-12 35 12 18 99-18 93-14 138 13 138 10 0 43-26 73-59 62-65 87-81 124-81 33 0 44 23 38 76-6 55 7 57 69 12 41-30 42-31 20-39-29-11-24-41 8-49 16-3 27-17 35-40 8-25 17-35 31-35 17 0 20 6 17 34l-2 33 45-6c36-6 45-4 45 7 0 8-15 20-32 27-18 6-43 16-55 20-15 6-23 21-28 50-10 58 5 71 52 45 28-15 40-32 55-73 16-42 27-57 54-70 42-20 67-9 72 32 3 22-6 36-39 67-33 30-38 40-26 45 18 6 52-9 84-39 26-24 38-18 29 15-13 53-134 92-166 53-11-13-16-13-45 5-36 22-95 26-113 8-7-7-12-22-12-35v-22l-36 24c-41 28-56 30-85 14-15-8-25-6-46 10-31 25-78 27-91 5-8-15-12-15-40 0-17 9-38 16-47 16-26 0-65-46-65-76v-28l-27 26c-52 48-111 81-138 76-23-5-25-2-31 43-6 48-20 64-44 49zm102-157c9-10 20-31 24-48l7-30-28 25c-24 22-55 70-55 85 0 9 34-11 52-32zm388-26c27-43 26-61-1-47-22 12-59 67-59 88s38-5 60-41zM1033 633c-7-2-13-13-13-24 0-16 7-19 46-19 44 0 114-24 114-40 0-4-27-17-60-29-115-42-121-123-11-160 72-24 131-8 131 35 0 30-29 44-42 21-12-22-66-22-96-1-21 15-22 17-7 33 8 10 34 24 58 30 52 16 77 37 77 66 0 56-132 115-197 88zM1573 630c-26-10-53-59-53-93 0-56 57-144 111-172 53-28 115-16 151 29 52 63-27 207-129 235-44 13-51 13-80 1zm105-66c50-33 80-122 50-152-22-22-72-14-100 16-35 38-48 65-48 104 0 59 37 71 98 32zM1276 621c-4-6 0-54 9-106s15-107 13-122c-3-27-2-27 86-39 98-13 116-11 116 16 0 15-12 20-72 27-72 8-72 8-79 42l-7 33 65-7c63-7 65-6 61 16-3 25-30 36-90 38-32 1-39 5-44 26-4 14-4 29 0 32 3 4 36 2 73-4 74-11 93-8 93 13s-37 32-133 40c-59 4-86 3-91-5zM2064 619c-8-14-7-129 1-169 5-24 4-25-51-25-61 0-83-18-42-34 39-15 235-38 257-29 43 15 23 35-40 41-33 3-63 7-65 10-3 3-8 51-12 108-6 85-10 104-24 107-9 2-20-2-24-9z"/></g><path d="M375 378c-60-105-127-222-148-260l-39-68h199l47 80c25 44 46 85 46 91 0 25 23-1 68-81l49-85 96-3c54-1 97 0 97 4 0 10-294 513-300 514-3 0-54-87-115-192z" fill="#354a5e"/></svg>